<?xml version="1.0" encoding="UTF-8"?>
<svg enable-background="new 0 0 20 24" version="1.1" viewBox="0 0 20 24" xml:space="preserve" xmlns="http://www.w3.org/2000/svg">
	<rect x=".5" y=".5" width="3" height="3"/>
	<path d="m3 1v2h-2v-2h2m1-1h-4v4h4v-4z"/>

	<rect x="16.5" y=".5" width="3" height="3"/>
	<path d="m19 1v2h-2v-2h2m1-1h-4v4h4v-4z"/>


	<rect x=".5" y="20.5" width="3" height="3"/>
	<path d="m3 21v2h-2v-2h2m1-1h-4v4h4v-4z"/>

	<rect x="16.5" y="20.5" width="3" height="3"/>
	<path d="m19 21v2h-2v-2h2m1-1h-4v4h4v-4z"/>

	<rect x="8.5" y="20.5" width="3" height="3"/>
	<path d="m11 21v2h-2v-2h2m1-1h-4v4h4v-4z"/>

	<rect x="8.5" y=".5" width="3" height="3"/>
	<path d="m11 1v2h-2v-2h2m1-1h-4v4h4v-4z"/>


	<rect x=".5" y="10.5" width="3" height="3"/>
	<path d="m3 11v2h-2v-2h2m1-1h-4v4h4v-4z"/>


	<rect x="8.5" y="10.5" width="3" height="3"/>
	<path d="m11 11v2h-2v-2h2m1-1h-4v4h4v-4z"/>

	<rect x="16.5" y="10.5" width="3" height="3"/>
	<path d="m19 11v2h-2v-2h2m1-1h-4v4h4v-4z"/>
</svg>

